<svg width="88" height="60" viewBox="0 0 88 60" fill="none" xmlns="http://www.w3.org/2000/svg">
<path fill-rule="evenodd" clip-rule="evenodd" d="M86.9867 9.33333C85.96 7.56667 83.9067 6.39333 79.8 4.04L78.88 3.51333C74.7733 1.17333 72.72 0 70.6667 0C68.6133 0 66.56 1.17333 62.4533 3.52667L61.5333 4.05333C59.7867 5.05333 58.4133 5.84 57.3333 6.54667C56.2533 5.84 54.88 5.05333 53.1333 4.05333L52.2133 3.52667C48.1067 1.17333 46.0533 0 44 0C41.9467 0 39.8933 1.17333 35.7933 3.52667L34.8667 4.05333C33.12 5.05333 31.7467 5.84 30.6667 6.54667C29.5867 5.84 28.2133 5.05333 26.4667 4.05333L25.54 3.52667C21.44 1.17333 19.3867 0 17.3333 0C15.28 0 13.2267 1.17333 9.12667 3.52667L8.2 4.05333C4.09333 6.40667 2.04 7.58 1.02 9.33333C0 11.0867 0 13.4533 0 18.1467V19.1867C0 23.8533 0 26.2267 1.02 27.9867C2.04 29.7467 4.09333 30.9267 8.2 33.28L9.12667 33.8067C10.8667 34.8067 12.24 35.5933 13.4 36.1667C13.3333 37.4133 13.3333 38.92 13.3333 40.8333V41.8733C13.3333 46.54 13.3333 48.9133 14.3533 50.6733C15.3733 52.4333 17.4267 53.6133 21.5333 55.9667L22.4533 56.4933C26.56 58.8267 28.6133 60 30.6667 60C32.72 60 34.7733 58.8267 38.8733 56.4733L39.8 55.9467C41.5467 54.9467 42.92 54.16 44 53.4533C45.08 54.16 46.4533 54.9467 48.2 55.9467L49.1267 56.4733C53.2267 58.8267 55.28 60 57.3333 60C59.3867 60 61.44 58.8267 65.5467 56.4733L66.4667 55.9467C70.5733 53.5933 72.6267 52.42 73.6467 50.6533C74.6667 48.8867 74.6667 46.5467 74.6667 41.8533V40.8133C74.6667 38.92 74.6667 37.4133 74.6 36.1467C75.76 35.5733 77.1333 34.8133 78.88 33.7867L79.8 33.26C83.9067 30.9067 85.96 29.7333 86.9867 27.9667C88.0133 26.2 88 23.88 88 19.1867V18.1467C88 13.4533 88 11.1067 86.9867 9.33333ZM26.12 13.6667C25.5733 12.7133 24.4667 12.0867 22.2533 10.8267L21.7533 10.54C19.5467 9.29333 18.44 8.66667 17.3333 8.66667C16.2267 8.66667 15.12 9.29333 12.9133 10.5533L12.4133 10.84C10.2 12.1 9.08 12.7267 8.54667 13.68C8.01333 14.6333 8 15.88 8 18.3867V18.9467C8 21.4533 8 22.7133 8.54667 23.6533C9.09333 24.5933 10.2 25.2333 12.4133 26.4933L12.9133 26.78C15.12 28.04 16.2267 28.6667 17.3333 28.6667C18.44 28.6667 19.5467 28.04 21.7533 26.78L22.2533 26.4933C24.4667 25.2333 25.5867 24.6067 26.12 23.6533C26.6533 22.7 26.6667 21.4533 26.6667 18.9467V18.3867C26.6667 15.88 26.6667 14.62 26.12 13.68V13.6667ZM48.6133 12C48.7348 11.9361 48.8365 11.8402 48.9074 11.7227C48.9784 11.6052 49.0159 11.4706 49.0159 11.3333C49.0159 11.1961 48.9784 11.0614 48.9074 10.944C48.8365 10.8265 48.7348 10.7306 48.6133 10.6667L48.3867 10.54C46.18 9.29333 45.0733 8.66667 44 8.66667C42.9267 8.66667 41.7867 9.29333 39.5733 10.5467L39.0467 10.84C36.88 12.0733 35.7933 12.6867 35.2467 13.62C34.7 14.5533 34.6667 15.8133 34.6667 18.3267V18.5667C34.6679 18.7012 34.7041 18.8331 34.7719 18.9493C34.8396 19.0655 34.9365 19.162 35.053 19.2293C35.1694 19.2967 35.3014 19.3324 35.4359 19.3331C35.5705 19.3338 35.7028 19.2994 35.82 19.2333L48.6133 12ZM52.72 49.3333C52.5985 49.2694 52.4968 49.1735 52.4259 49.056C52.355 48.9386 52.3175 48.8039 52.3175 48.6667C52.3175 48.5294 52.355 48.3948 52.4259 48.2773C52.4968 48.1598 52.5985 48.0639 52.72 48L65.5133 40.7667C65.6305 40.7006 65.7629 40.6662 65.8974 40.6669C66.0319 40.6676 66.1639 40.7033 66.2804 40.7707C66.3968 40.838 66.4937 40.9345 66.5615 41.0507C66.6292 41.1669 66.6655 41.2988 66.6667 41.4333V41.6733C66.6667 44.1867 66.6667 45.4467 66.12 46.38C65.5733 47.3133 64.4867 47.9267 62.32 49.16L61.7933 49.4533C59.58 50.7067 58.46 51.3333 57.3667 51.3333C56.2733 51.3333 55.1533 50.7067 52.9467 49.4533L52.72 49.3333ZM76.4733 11.0667C75.0533 10.7667 73.4467 11.1333 71.6667 12.1667C70.159 12.9226 68.9872 14.2132 68.38 15.7867C67.9067 17.2067 68.1533 18.76 69.12 20.4533C70.0867 22.1467 71.3467 23.16 72.8333 23.4333C74.32 23.7067 75.96 23.3 77.7733 22.26C79.5867 21.22 80.62 20.1733 81.1067 18.9867C81.3621 18.4209 81.4727 17.8005 81.4284 17.1813C81.3842 16.5621 81.1866 15.9637 80.8533 15.44L77.3333 17.4733C77.4545 17.6635 77.5311 17.8786 77.5577 18.1025C77.5842 18.3264 77.56 18.5534 77.4867 18.7667C77.27 19.2804 76.8711 19.6959 76.3667 19.9333C76.1068 20.1147 75.8109 20.2378 75.499 20.2941C75.1872 20.3505 74.8669 20.3389 74.56 20.26C73.9553 19.9949 73.4657 19.5219 73.18 18.9267L80.5133 14.7L80.1533 14.0733C79.1356 12.3533 77.9089 11.3511 76.4733 11.0667ZM72.1733 17.1933C72.0456 16.9485 71.97 16.6799 71.9512 16.4043C71.9324 16.1288 71.9709 15.8524 72.0642 15.5925C72.1575 15.3326 72.3037 15.0948 72.4934 14.8942C72.6831 14.6935 72.9124 14.5344 73.1667 14.4267C73.3781 14.2861 73.6168 14.1915 73.8671 14.149C74.1175 14.1065 74.374 14.1171 74.62 14.18C74.8638 14.2512 75.0906 14.3713 75.2866 14.5329C75.4826 14.6945 75.6436 14.8942 75.76 15.12L72.1733 17.1933ZM67.2267 28.0333L59.4933 14.6667L63.1667 12.5467L70.9 25.94L67.2267 28.0333ZM41.8333 29.3667C43.06 28.5923 44.4595 28.1342 45.9067 28.0333C46.4806 27.9957 47.0529 28.128 47.5521 28.4138C48.0512 28.6995 48.4551 29.126 48.7133 29.64L50.9067 33.4467C51.0053 33.6352 51.1619 33.7871 51.3533 33.88C51.4437 33.9187 51.5423 33.9342 51.6401 33.9248C51.738 33.9155 51.8319 33.8818 51.9133 33.8267L52.58 33.44L53.8067 35.5667C53.7437 35.6739 53.67 35.7744 53.5867 35.8667C53.4114 36.0519 53.2243 36.2255 53.0267 36.3867C52.7425 36.6414 52.4318 36.8649 52.1 37.0533C51.5056 37.4232 50.8401 37.664 50.1467 37.76C49.6302 37.8241 49.1081 37.696 48.68 37.4C48.4219 38.0492 48.0643 38.6542 47.62 39.1933C47.1041 39.804 46.4804 40.3147 45.78 40.7C43.4867 42.0333 41.8156 41.7844 40.7667 39.9533C40.5113 39.5766 40.3358 39.1516 40.2509 38.7044C40.1661 38.2572 40.1737 37.7974 40.2733 37.3533C40.5742 36.4398 41.1377 35.6351 41.8933 35.04C43.0181 34.1137 44.2253 33.2925 45.5 32.5867L45.2267 32.1067C45.1451 31.9274 45.0189 31.7719 44.8602 31.6552C44.7014 31.5385 44.5155 31.4644 44.32 31.44C43.9034 31.3988 43.4852 31.4998 43.1333 31.7267C42.7829 31.914 42.4814 32.1812 42.2533 32.5067C42.1589 32.6325 42.1051 32.7842 42.0992 32.9415C42.0932 33.0987 42.1354 33.254 42.22 33.3867L42.26 33.46L38.6667 35.5933C38.6033 35.5167 38.5475 35.4341 38.5 35.3467C38.2381 34.8959 38.1035 34.3824 38.1106 33.8611C38.1176 33.3398 38.266 32.8302 38.54 32.3867C39.349 31.1096 40.4865 30.0734 41.8333 29.3867V29.3667ZM46.5 34.3067C45.6881 34.7251 44.9675 35.3007 44.38 36C44.2123 36.1737 44.1019 36.3947 44.0638 36.6331C44.0256 36.8716 44.0615 37.116 44.1667 37.3333C44.52 37.9533 45.1133 38 45.9533 37.5333C46.4089 37.2835 46.7714 36.8929 46.9867 36.42C47.094 36.2238 47.1503 36.0037 47.1503 35.78C47.1503 35.5563 47.094 35.3362 46.9867 35.14L46.5 34.3067ZM30.7733 41.8333L35.44 46.3933L39.02 44.32L36.96 32.5L33.3733 34.5667L35.2067 41.1933L35.08 41.2667L30.2733 36.36L26.6133 38.4733L28.4067 45.14L28.28 45.2133L23.4733 40.3067L19.52 42.5867L28.72 50.28L32.3 48.2133L30.7 41.9L30.7733 41.8333ZM51.5467 19.08C51.1723 19.2027 50.8106 19.3612 50.4667 19.5533C49.482 20.0379 48.7055 20.8618 48.28 21.8733C47.9667 22.7467 48.1667 23.8133 48.8933 25.0667L49.1267 25.4733L47.7933 26.26L49.2333 28.7533L50.5667 27.9667L54.76 35.2267L58.44 33.1067L54.2467 25.8467L56.9133 24.3133L61.1067 31.5733L64.78 29.4467L60.5733 22.1867L62.24 21.2267L60.8 18.7333L59.1333 19.6933L58.9133 19.3333C58.7196 19.0757 58.6314 18.7538 58.6667 18.4333C58.7133 18.2067 58.94 17.98 59.3333 17.7667L60 17.38L58.7533 15.22C58.4135 15.279 58.0806 15.3728 57.76 15.5C57.4222 15.6039 57.096 15.7424 56.7867 15.9133C55.8034 16.3977 55.029 17.2219 54.6067 18.2333C54.2867 19.1067 54.4933 20.1667 55.22 21.4267L55.4533 21.8333L52.7867 23.3667L52.56 22.9733C52.4677 22.8469 52.4014 22.7035 52.3648 22.5513C52.3281 22.3991 52.322 22.2412 52.3467 22.0867C52.4803 21.7907 52.7173 21.5536 53.0133 21.42L53.86 20.9267L52.6667 18.7333C52.2831 18.8127 51.908 18.9288 51.5467 19.08Z" fill="#FF7733"/>
</svg>
