<?xml version="1.0" encoding="utf-8"?>
<!-- Generator: Adobe Illustrator 24.1.0, SVG Export Plug-In . SVG Version: 6.00 Build 0)  -->
<svg version="1.1" id="Layer_1" xmlns="http://www.w3.org/2000/svg" xmlns:xlink="http://www.w3.org/1999/xlink" x="0px" y="0px"
	 viewBox="0 0 132 90" style="enable-background:new 0 0 132 90;" xml:space="preserve">
<style type="text/css">
	.st0{fill-rule:evenodd;clip-rule:evenodd;fill:#77BF43;}
</style>
<path class="st0" d="M93.1,64c0.7,0.9,0.8,2.2,0.2,3.2L87.8,64c1.1-1.5,3.1-1.8,4.6-0.7C92.6,63.5,92.9,63.7,93.1,64z M40.7,42.7
	c-0.5,0.9-0.2,1.7,1.1,2.5c1.2,0.7,3.1,0.9,3.9-0.5l0.7-1.3C45,42.7,41.9,40.9,40.7,42.7z M132,28c0,7,0,11.3-1.5,14
	c-1.5,2.7-5.3,4.8-11.5,8.3c-2.6,1.5-5.4,3.1-7.1,3.9c0.1,1.9,0.1,4.9,0.1,7.8c0,7,0,11.3-1.5,14c-1.5,2.7-5.3,4.8-11.5,8.3
	c-6.2,3.5-9.9,5.7-13,5.7s-6.8-2.2-13-5.7c-2.6-1.5-5.4-3.1-7-4.1c-1.6,1.1-4.4,2.6-7,4.1c-6.1,3.5-9.9,5.7-13,5.7s-6.8-2.2-13-5.7
	c-6.1-3.5-9.9-5.7-11.5-8.3C20,73.3,20,69,20,62c0-2.8,0-5.9,0.1-7.8c-1.7-0.9-4.5-2.4-7.1-3.9C6.8,46.8,3.1,44.6,1.5,42
	C0,39.3,0,35,0,28s0-11.3,1.5-14C3.1,11.3,6.8,9.2,13,5.7C19.2,2.1,22.9,0,26,0s6.9,2.2,13,5.7c2.6,1.5,5.4,3.1,7,4.1
	c1.6-1.1,4.4-2.6,7-4.1C59.2,2.2,62.9,0,66,0s6.9,2.2,13,5.7c2.6,1.5,5.4,3.1,7,4.1c1.6-1.1,4.4-2.6,7-4.1c6.2-3.5,9.9-5.7,13-5.7
	s6.9,2.2,13,5.7c6.2,3.5,9.9,5.7,11.5,8.3C132,16.6,132,21,132,28z M59.1,18l19.2,10.8c1,0.6,1.7-0.4,1.7-1.4c0-3.8-0.1-5.7-0.9-7.1
	C78.3,19,76.3,17.8,73,16c-3.3-1.8-5.4-3-7-3s-3.3,0.9-6.6,2.8C58.6,16.2,58,17.4,59.1,18z M42.9,31.7c-1.8-0.1-3.4,1-4.1,2.6
	l5.5,3.1c1-1.6,3.5-0.1,4.1,1.2c0.4,0.9-0.2,1.6-0.6,2.4c-2.9-1.7-6.6-3.9-10.1-3.2c-5,1.6-4.2,7.3-0.2,9.7c1.9,1.2,4.2,1.6,6.5,1.3
	c-0.2,2.8,3.7,5.3,6.2,5.3l1.8-3.2c-0.8-0.5-2-1-1.3-2.2l3.3-5.7c1-1.5,1-3.4,0-4.8c0,0,0,0,0,0l0,0c0,0,0,0,0,0
	C51.4,34.4,47.3,32.2,42.9,31.7z M27.7,41.3l13.8-11.5l-5.4-3.1L28.9,34l-0.2-0.1l2.8-9.9L26,20.8l-7.3,7.3L18.5,28l2.8-9.9
	l-5.9-3.4l-3.1,17.7l5.4,3.1l7-6.8l0.1,0l-2.4,9.5L27.7,41.3z M52.9,72L33.7,61.2c-1-0.5-1.7,0.4-1.7,1.4c0,3.8,0,5.7,0.8,7.1
	c0.8,1.4,2.8,2.5,6.1,4.4c3.2,1.8,5.4,3,7,3c1.6,0,3.3-0.9,6.6-2.8C53.4,73.8,54,72.6,52.9,72z M66.4,63.6l6.3-10.9l2.5,1.4l2.2-3.7
	L74.8,49c0.2-0.7,0.7-1.2,1.3-1.6c0.8-0.3,1.7,0.6,2.4,0.9l1.9-3.2c-1.7-2.2-4.3-3.3-7-3.1c-2,0.3-3.1,2.2-4,3.8l-4-2.3
	c0.2-0.4,0.4-0.8,0.7-1.2c1-0.9,2.3,0.2,3.2,0.7l2-3.2c-1.8-2.1-4.5-3.7-7.4-3.3c-2,0.4-3.1,2.2-4,3.8l-2-1.1l-2.2,3.7l2,1.1
	l-6.3,10.9l5.5,3.2l6.3-10.9l4,2.3l-6.3,10.9L66.4,63.6z M75.5,68.9l11.6-20.1l-5.5-3.2L70,65.7L75.5,68.9z M99,65
	c-1.5-4.6-7.6-7.7-12.2-7c-4.6,0.9-8.2,7-6.6,11.5c1.5,4.2,7.5,8,12,7.4c1.9-0.2,3.5-1.3,4.4-3l-5.3-3c-1.3,2.5-5.1,0.6-5.7-1.5
	c-0.1-1,0.1-2,0.7-2.8l11,6.4l0.5-0.9C99.3,69.5,99.7,67.1,99,65z M118.3,38.7c0-1.6-2.6-1.3-2.6,0
	C115.7,40.2,118.3,40.2,118.3,38.7z M106.9,12.8c-6.5,0-13.3,6.2-13.3,14.9s6.3,15.4,13.5,15.4c5.6,0,6.8-2.7,6.8-3.1
	c0-1.1-1.6-0.2-3.3-0.2c-5.1,0-7.9-5.4-7.9-11.1c0-5.8,3.3-7.1,4.9-7.1c1.6,0,4.2,0.7,4.2,4.2c0,4.2-6.3,3.3-6.3,7.4
	c-0.1,1.3,0.8,4,5.1,4C121.3,37.1,125.1,12.8,106.9,12.8z"/>
</svg>
